{"title":"Good Deeds 2012 SCR XViD DTRG","uid":7155679,"size":1129043592,"categoryP":"video","categoryS":"movies","magnet":"?xt=urn:btih:2202026b3d5cdda98aef6908a945d60acfd4dc07&amp;dn=Good+Deeds+2012+SCR+XViD+DTRG&amp;tr=udp%3A%2F%2Ftracker.openbittorrent.com%3A80&amp;tr=udp%3A%2F%2Fopen.demonii.com%3A1337&amp;tr=udp%3A%2F%2Ftracker.coppersurfer.tk%3A6969&amp;tr=udp%3A%2F%2Fexodus.desync.com%3A6969","seeders":0,"leechers":0,"uploader":"BLOVES","files":3,"time":1333449142,"description":"Video\nID : 0\nFormat : MPEG-4 Visual\nFormat profile : Advanced Simple@L5\nFormat settings, BVOP : 2\nFormat settings, QPel : No\nFormat settings, GMC : No warppoints\nFormat settings, Matrix : Default (H.263)\nMuxing mode : Packed bitstream\nCodec ID : XVID\nCodec ID/Hint : XviD\nDuration : 1h 49mn\nBit rate : 1 226 Kbps\nWidth : 672 pixels\nHeight : 282 pixels\nDisplay aspect ratio : 2.40:1\nFrame rate : 29.970 fps\nColor space : YUV\nChroma subsampling : 4:2:0\nBit depth : 8 bits\nScan type : Progressive\nCompression mode : Lossy\nBits/(Pixel*Frame) : 0.216\nStream size : 958 MiB (90%)\nWriting library : XviD 64\n\nAudio\nID : 1\nFormat : MPEG Audio\nFormat version : Version 1\nFormat profile : Layer 3\nMode : Joint stereo\nMode extension : MS Stereo\nCodec ID : 55\nCodec ID/Hint : MP3\nDuration : 1h 49mn\nBit rate mode : Constant\nBit rate : 128 Kbps\nChannel(s) : 2 channels\nSampling rate : 48.0 KHz\nCompression mode : Lossy\nDelay relative to video : 6ms\nStream size : 100.0 MiB (9%)\nAlignment : Split accross interleaves\nInterleave, duration : 33 ms (1.00 video frame)\nInterleave, preload duration : 500 ms\nWriting library : LAME3.99.4ÂªÂªÂªÂªÂªÂªÂªÂªÂªa\n\n\n\n\n\n\n\n &lt;a href=&quot;\nhttp://www.imdb.com/title/tt1885265/&quot; rel=&quot;nofollow&quot; target=&quot;_NEW&quot;&gt;\nhttp://www.imdb.com/title/tt1885265/&lt;/a&gt;\n\n\n\n\n\nRatings: 2.7/10 from 895 users Metascore: 43/100 \nReviews: 11 user | 23 critic | 15 from Metacritic.com\n\nBusinessman Wesley Deeds is jolted out of his scripted life when he meets Lindsey, a single mother who works on the cleaning crew in his office building.\nDirector:\nTyler Perry\nWriter:\nTyler Perry (screenplay)\nStars:\nTyler Perry, Gabrielle Union and Thandie Newton \n\n\n\n\n\n\nSource Used\n\n\n\n\nKingdom........Thanks\n\n\n\nEnjoy\n\n\n\n\nPlenty blah blah filters but screens never show true image..............check out the sample","torrent":{"xt":"urn:btih:2202026b3d5cdda98aef6908a945d60acfd4dc07","amp;dn":"Good+Deeds+2012+SCR+XViD+DTRG","amp;tr":["udp%3A%2F%2Ftracker.openbittorrent.com%3A80","udp%3A%2F%2Fopen.demonii.com%3A1337","udp%3A%2F%2Ftracker.coppersurfer.tk%3A6969","udp%3A%2F%2Fexodus.desync.com%3A6969"],"infoHash":"2202026b3d5cdda98aef6908a945d60acfd4dc07","infoHashBuffer":{"type":"Buffer","data":[34,2,2,107,61,92,221,169,138,239,105,8,169,69,214,10,207,212,220,7]},"announce":[],"urlList":[]}}